<?xml version="1.0" standalone="no"?>
<!DOCTYPE svg PUBLIC "-//W3C//DTD SVG 20010904//EN"
 "http://www.w3.org/TR/2001/REC-SVG-20010904/DTD/svg10.dtd">
<svg version="1.0" xmlns="http://www.w3.org/2000/svg"
 width="310.000000pt" height="310.000000pt" viewBox="0 0 310.000000 310.000000"
 preserveAspectRatio="xMidYMid meet">
<metadata>
Created by potrace 1.14, written by Peter Selinger 2001-2017
</metadata>
<g transform="translate(0.000000,310.000000) scale(0.100000,-0.100000)"
fill="#000000" stroke="none">
<path d="M1346 3093 c-8 -8 -29 -13 -68 -15 -16 0 -28 -6 -28 -12 0 -6 -5 -4
-10 4 -7 12 -10 12 -10 1 0 -7 -6 -11 -15 -8 -8 4 -17 2 -21 -4 -3 -6 -12 -8
-19 -5 -7 2 -23 -3 -36 -11 -12 -9 -19 -11 -15 -5 5 8 2 10 -8 6 -9 -3 -16
-11 -16 -18 0 -6 -5 -4 -10 4 -7 12 -10 12 -10 1 0 -7 -6 -11 -15 -7 -8 3 -15
2 -15 -2 0 -4 -21 -14 -47 -21 -27 -8 -53 -18 -60 -23 -7 -5 -17 -7 -23 -3 -6
4 -9 2 -8 -3 2 -6 -1 -11 -7 -12 -5 -1 -24 -10 -41 -21 -17 -10 -39 -19 -48
-19 -9 0 -19 -6 -22 -14 -3 -8 -15 -17 -27 -20 -13 -3 -32 -15 -45 -26 -12
-11 -22 -18 -22 -15 0 4 -13 -4 -29 -17 -16 -12 -44 -34 -62 -48 -18 -14 -41
-33 -51 -42 -10 -10 -21 -18 -24 -18 -3 0 -35 -29 -71 -65 -36 -36 -63 -65
-60 -65 3 0 -11 -17 -31 -37 -21 -21 -41 -36 -45 -35 -5 1 -6 -2 -3 -6 3 -5
-5 -21 -19 -36 -13 -15 -25 -30 -25 -34 0 -4 -7 -15 -15 -25 -8 -9 -15 -21
-15 -25 0 -5 -9 -18 -21 -30 -11 -12 -18 -26 -15 -31 3 -5 -1 -11 -9 -15 -8
-3 -15 -12 -15 -21 0 -8 -5 -15 -11 -15 -5 0 -8 -4 -4 -9 3 -5 -2 -17 -11 -25
-8 -9 -13 -16 -10 -16 3 0 -6 -23 -20 -50 -14 -28 -27 -60 -30 -73 -2 -12 -8
-23 -14 -25 -6 -2 -7 -8 -4 -13 3 -6 1 -15 -4 -22 -6 -7 -11 -15 -11 -19 -1
-5 -1 -9 -2 -10 -3 -11 -11 -47 -14 -63 -2 -11 -4 -21 -5 -22 -2 -2 -4 -7 -5
-13 -1 -5 -3 -11 -5 -12 -4 -6 -20 -101 -23 -140 -1 -16 -5 -28 -9 -28 -5 0
-8 -5 -8 -11 0 -5 5 -7 10 -4 6 3 10 1 10 -4 0 -6 -4 -11 -9 -11 -6 0 -9 -74
-9 -175 0 -96 4 -172 9 -170 4 3 7 -13 5 -35 -2 -22 1 -40 6 -40 5 0 8 -15 6
-33 -1 -18 2 -39 7 -47 9 -14 11 -21 18 -65 2 -11 9 -31 16 -44 11 -19 11 -22
-1 -15 -8 5 -7 -1 5 -19 9 -14 17 -35 17 -47 0 -11 5 -20 10 -20 6 0 10 -11
10 -25 0 -14 5 -25 10 -25 6 0 10 -9 10 -20 0 -11 5 -20 10 -20 6 0 9 -3 8 -7
-4 -15 13 -53 23 -53 6 0 8 -4 4 -9 -3 -5 2 -17 11 -25 8 -9 13 -16 9 -16 -3
0 3 -13 14 -29 11 -15 18 -31 14 -35 -3 -3 1 -6 11 -6 9 0 15 -4 11 -9 -3 -5
6 -21 20 -35 14 -14 23 -26 20 -26 -9 0 25 -46 74 -99 22 -25 37 -50 34 -55
-3 -6 -3 -8 1 -4 5 4 39 -24 76 -62 37 -38 71 -66 74 -63 3 4 6 -1 6 -11 0 -9
5 -14 10 -11 6 3 10 2 10 -4 0 -5 9 -13 20 -16 11 -4 18 -10 16 -14 -3 -4 8
-12 23 -19 15 -7 36 -20 47 -30 10 -10 39 -29 64 -42 25 -14 46 -28 48 -32 2
-5 12 -8 22 -8 10 0 22 -5 25 -10 8 -13 84 -50 102 -50 7 0 13 -5 13 -11 0 -5
4 -8 9 -4 5 3 12 1 16 -5 4 -6 11 -8 16 -5 5 4 9 1 9 -6 0 -7 3 -9 7 -6 3 4
12 2 20 -4 7 -6 13 -8 13 -4 0 4 7 2 15 -5 8 -6 19 -9 25 -5 5 3 10 1 10 -6 0
-7 3 -10 6 -6 3 3 24 -1 46 -9 21 -7 42 -13 46 -13 4 1 9 0 12 -1 8 -3 43 -10
70 -14 14 -2 25 -5 25 -6 0 -7 104 -13 265 -15 146 -1 187 1 198 12 10 10 18
11 27 3 9 -7 15 -7 19 -1 4 5 14 10 24 10 37 0 78 7 90 14 6 5 17 5 22 2 6 -3
10 -1 10 5 0 6 5 8 10 5 6 -3 10 -2 10 4 0 5 9 8 20 6 11 -2 20 0 20 6 0 5 5
9 11 9 5 0 7 -6 3 -12 -4 -7 2 -5 13 4 11 10 26 18 35 18 8 0 18 3 22 7 4 5
12 9 17 9 5 1 11 3 14 4 3 1 8 3 13 4 20 5 108 50 113 58 3 5 8 9 10 7 9 -5
49 13 49 22 0 6 5 7 10 4 6 -3 10 -2 10 3 0 5 18 17 40 27 22 10 40 22 40 27
0 4 5 8 11 8 7 0 20 9 30 21 9 11 20 20 23 20 15 -1 35 12 30 20 -3 5 1 9 9 9
8 0 18 7 21 16 4 9 9 15 12 12 7 -7 120 104 116 115 -1 5 1 6 6 3 4 -3 19 9
33 26 13 16 37 43 52 59 16 16 25 29 21 29 -5 0 2 7 14 16 12 8 22 24 22 35 0
11 4 17 10 14 5 -3 12 6 16 20 3 14 10 25 14 25 5 0 15 12 23 28 8 15 27 52
43 82 16 30 33 58 39 62 5 4 6 8 1 8 -5 0 -3 6 3 13 6 8 8 17 4 20 -3 4 -1 7
5 7 7 0 12 9 12 19 0 11 5 23 10 26 6 4 8 11 5 16 -4 5 -1 9 5 9 6 0 8 5 5 10
-3 6 -1 10 5 10 6 0 9 4 6 9 -3 5 1 25 9 44 8 19 11 37 8 41 -4 3 -1 6 5 6 7
0 11 3 11 7 -4 24 2 63 9 59 4 -2 7 11 7 30 -1 19 3 34 8 34 5 0 7 9 4 20 -3
11 -1 23 5 26 6 4 5 10 -3 15 -8 5 -9 9 -3 9 6 0 10 13 9 30 -1 16 2 27 6 25
4 -3 7 80 6 185 0 104 -4 187 -9 184 -5 -3 -7 6 -4 19 2 14 1 28 -2 32 -7 7
-8 12 -10 63 -1 18 -6 31 -10 28 -5 -3 -8 5 -7 17 1 12 -4 39 -11 60 -7 20
-11 37 -8 37 2 0 -2 13 -10 29 -9 16 -12 31 -9 35 4 3 1 6 -5 6 -7 0 -11 3
-11 8 3 16 -14 72 -22 72 -5 0 -9 8 -9 17 0 9 -8 25 -17 36 -13 15 -14 18 -3
12 9 -5 8 0 -4 13 -11 12 -15 22 -11 22 5 0 0 7 -11 16 -10 8 -12 13 -4 9 8
-4 6 1 -4 9 -11 9 -17 16 -13 16 8 0 -44 83 -56 88 -4 2 -5 8 -1 13 3 5 0 9
-5 9 -6 0 -11 7 -11 15 0 9 -7 18 -15 21 -8 3 -17 14 -20 25 -4 11 -11 16 -17
13 -6 -4 -8 -2 -4 4 3 6 -1 17 -9 25 -8 9 -15 21 -15 27 0 6 -4 9 -9 5 -5 -3
-12 4 -16 15 -4 11 -11 18 -16 15 -5 -4 -9 -2 -9 4 0 14 -111 125 -132 134
-10 3 -18 13 -18 22 0 8 -7 15 -15 15 -8 0 -27 12 -42 26 -15 14 -35 32 -44
40 -9 8 -21 14 -27 14 -7 0 -12 5 -12 11 0 5 -4 7 -10 4 -5 -3 -10 -2 -10 2 0
5 -17 17 -37 28 -21 11 -44 26 -51 33 -8 7 -18 10 -23 7 -5 -4 -9 -2 -9 3 0 5
-8 12 -17 14 -32 8 -38 11 -51 25 -7 7 -22 13 -33 13 -11 0 -17 4 -14 10 3 6
-1 7 -9 4 -9 -3 -16 -1 -16 6 0 6 -4 9 -8 6 -5 -3 -19 1 -33 8 -13 7 -30 11
-37 8 -6 -2 -12 1 -12 8 0 6 -4 9 -9 5 -5 -3 -13 0 -16 6 -4 5 -13 8 -21 5 -8
-3 -14 -2 -14 2 0 4 -8 8 -17 9 -10 0 -29 4 -43 8 -41 10 -84 18 -105 19 -11
0 -25 6 -31 14 -8 11 -13 12 -18 3 -5 -8 -13 -8 -28 0 -16 9 -19 8 -12 -3 6
-10 5 -11 -7 -2 -17 14 -336 17 -344 3 -4 -5 -12 -9 -18 -9 -7 0 -6 4 3 10 8
5 10 10 4 10 -6 0 -14 -3 -18 -7z m-376 -233 c0 -4 6 -7 13 -7 20 -2 81 -27
89 -38 4 -5 8 -7 8 -2 0 4 13 1 29 -7 16 -9 31 -12 35 -9 3 4 6 1 6 -6 0 -7 5
-9 10 -6 6 3 10 2 10 -3 0 -5 6 -9 13 -9 24 -1 42 -8 55 -23 8 -8 11 -10 8 -3
-5 8 2 7 21 -2 24 -12 77 -35 93 -40 3 -1 18 -7 33 -13 16 -7 33 -10 38 -6 5
3 9 1 9 -4 0 -5 13 -15 29 -21 27 -12 28 -15 26 -74 -2 -35 2 -68 9 -76 6 -9
7 -12 0 -9 -14 9 -14 -264 1 -274 7 -5 6 -8 -1 -8 -8 0 -11 -16 -10 -41 2 -35
-2 -46 -28 -70 -17 -15 -33 -27 -36 -26 -3 1 -26 -18 -50 -43 -24 -25 -47 -44
-50 -44 -10 3 -40 -23 -33 -29 3 -4 0 -7 -8 -7 -9 0 -30 -14 -47 -31 -18 -17
-32 -28 -32 -24 0 4 -16 -9 -35 -29 -19 -20 -38 -37 -42 -38 -15 -1 -43 -25
-37 -30 3 -4 -4 -9 -16 -13 -13 -4 -36 -20 -53 -37 -31 -29 -67 -35 -94 -15
-7 5 -18 5 -24 1 -8 -5 -9 -3 -4 6 6 10 4 12 -7 7 -9 -3 -21 0 -27 6 -6 6 -11
8 -11 3 0 -4 -12 0 -27 8 -28 15 -82 31 -95 28 -5 -1 -8 3 -8 8 0 5 -3 9 -7 8
-7 -2 -41 8 -133 37 -3 1 -13 5 -22 9 -9 4 -22 8 -30 10 -7 1 -17 4 -23 7 -5
4 -23 9 -39 13 -22 5 -27 11 -23 26 3 11 2 20 -2 20 -4 0 -8 6 -8 13 0 6 -4
26 -8 42 -4 17 -8 39 -10 50 -2 11 -4 20 -5 20 -2 0 -7 19 -15 57 -3 15 -9 38
-14 50 -4 13 -6 28 -4 35 2 6 -1 14 -6 18 -6 3 -11 11 -11 16 0 6 6 7 13 3 9
-6 9 -5 0 7 -7 9 -15 26 -17 40 -3 13 -5 24 -6 24 -1 0 -3 14 -5 32 -1 18 1
30 6 28 4 -3 10 4 14 15 3 11 11 20 16 20 5 0 9 6 9 13 0 16 178 203 190 199
6 -1 10 5 10 13 0 8 3 15 8 15 6 0 33 20 82 62 8 7 18 12 22 11 5 -2 8 0 8 5
0 4 18 18 40 32 22 14 40 28 40 33 0 4 4 6 9 2 5 -3 15 1 23 8 7 7 16 14 21
15 4 1 20 8 36 16 16 9 32 12 36 8 5 -4 5 -2 2 5 -4 6 -1 13 5 15 19 7 38 6
38 -2z m1180 -3 c0 7 7 10 15 7 8 -4 12 -11 8 -18 -3 -6 -3 -8 2 -4 4 4 24 -1
45 -12 21 -11 41 -16 45 -12 3 4 5 0 3 -8 -1 -8 3 -14 10 -12 6 1 12 -3 12
-10 0 -6 3 -9 6 -5 6 5 15 0 49 -31 8 -7 16 -11 19 -10 2 2 16 -7 30 -19 14
-13 26 -21 26 -18 0 3 12 -6 28 -20 15 -13 45 -40 66 -60 22 -19 44 -35 48
-35 4 0 8 -4 8 -9 0 -6 20 -30 45 -55 25 -26 45 -51 45 -57 0 -5 5 -7 10 -4 6
3 10 -1 10 -10 0 -8 7 -18 15 -21 8 -4 13 -10 10 -14 -3 -4 2 -10 10 -14 8 -3
15 -12 15 -21 0 -8 4 -15 8 -15 10 0 13 -41 3 -55 -4 -5 -8 -21 -9 -34 0 -13
-6 -27 -13 -31 -8 -6 -8 -9 0 -15 9 -5 9 -10 1 -20 -6 -7 -9 -19 -8 -26 2 -8
-3 -13 -10 -11 -10 2 -11 -2 -3 -15 6 -11 6 -24 -1 -36 -9 -17 -18 -59 -20
-94 -1 -7 -5 -13 -10 -13 -5 0 -6 -5 -3 -10 4 -6 1 -17 -5 -25 -10 -12 -10
-15 0 -15 9 0 9 -4 2 -12 -5 -7 -12 -22 -14 -33 -4 -25 -17 -35 -45 -35 -13 0
-23 -5 -23 -11 0 -6 -7 -9 -15 -5 -8 3 -15 0 -15 -6 0 -6 -3 -9 -6 -6 -3 4
-21 0 -40 -8 -19 -8 -34 -11 -34 -7 0 5 -5 0 -11 -9 -5 -10 -16 -15 -24 -12
-9 4 -15 0 -15 -7 0 -12 -2 -12 -9 0 -6 9 -11 10 -15 2 -4 -6 -18 -11 -32 -11
-13 0 -24 -5 -24 -11 0 -6 -9 -9 -20 -6 -11 3 -20 2 -20 -2 0 -7 -71 -33 -85
-31 -3 0 -20 -6 -39 -14 -19 -8 -37 -12 -40 -8 -3 3 -6 0 -6 -6 0 -18 -12 -15
-40 11 -14 12 -43 35 -65 51 -22 16 -44 34 -50 40 -5 6 -30 27 -55 46 -25 19
-50 39 -56 45 -6 5 -26 21 -44 35 -18 14 -40 32 -49 40 -9 9 -34 29 -56 45
-115 85 -110 77 -109 183 1 61 -2 92 -10 92 -8 0 -8 2 0 8 6 4 11 30 11 57 0
28 -5 53 -11 57 -8 6 -8 8 0 8 14 0 14 102 0 112 -8 5 -7 8 0 8 7 0 11 15 10
38 -2 36 12 64 27 55 4 -2 7 0 7 6 0 5 9 8 20 6 11 -2 20 0 20 5 0 4 7 11 16
14 10 4 13 2 8 -7 -4 -6 2 -4 13 6 11 9 23 14 26 10 4 -3 7 -1 7 5 0 7 3 11 8
10 7 -1 31 7 67 23 32 14 79 32 87 33 3 1 10 4 14 9 4 4 16 7 26 7 11 0 17 4
14 9 -4 5 2 8 11 7 10 -2 27 3 39 11 11 7 24 10 27 6 4 -3 7 -1 7 6 0 7 4 10
9 6 5 -3 12 -1 16 5 4 6 11 8 16 5 5 -4 9 -2 9 4 0 14 34 19 42 6 5 -6 8 -6 8
2z m543 -1100 c-3 -6 -2 -7 4 -4 5 3 16 -3 24 -15 8 -11 23 -31 34 -43 74 -83
110 -127 108 -131 -2 -2 13 -19 32 -37 19 -19 35 -39 35 -44 0 -6 7 -14 16
-17 8 -3 12 -11 8 -17 -4 -8 -3 -9 4 -5 17 10 36 -44 23 -65 -6 -11 -6 -20 2
-28 9 -9 9 -14 1 -19 -6 -4 -10 -15 -8 -24 1 -10 -2 -20 -6 -23 -5 -3 -7 -12
-4 -19 3 -8 1 -17 -4 -20 -5 -3 -8 -17 -7 -31 2 -14 -1 -25 -5 -25 -5 0 -9 -8
-9 -17 -1 -40 -5 -53 -14 -53 -6 0 -7 -3 -4 -7 4 -3 2 -12 -4 -20 -9 -10 -8
-13 2 -13 11 0 12 -2 1 -9 -7 -4 -14 -16 -16 -25 -1 -10 -9 -22 -17 -27 -11
-7 -11 -9 -1 -9 10 0 9 -4 -3 -16 -9 -9 -14 -22 -11 -30 3 -7 2 -14 -2 -16 -4
-2 -18 -18 -31 -37 -13 -19 -18 -30 -10 -25 7 4 3 -8 -9 -27 -13 -18 -30 -49
-39 -66 -15 -30 -27 -37 -60 -36 -7 1 -13 -3 -13 -8 0 -4 -9 -6 -20 -4 -11 2
-20 -1 -20 -7 0 -6 -6 -5 -16 3 -10 8 -18 9 -22 2 -4 -5 -14 -11 -22 -11 -8
-1 -28 -3 -45 -4 -16 -1 -33 -7 -37 -12 -4 -6 -12 -5 -21 3 -10 7 -16 8 -19 2
-1 -6 -24 -12 -50 -13 -27 -2 -48 -6 -48 -10 0 -3 -11 -5 -25 -3 -14 1 -25 -3
-25 -9 0 -6 -5 -4 -10 4 -6 10 -10 11 -10 3 0 -7 -5 -13 -11 -13 -5 0 -7 6 -3
13 6 8 3 8 -9 -2 -23 -18 -61 -7 -75 24 -6 14 -16 25 -22 25 -5 0 -10 6 -10
14 0 8 -7 17 -16 20 -9 4 -14 9 -10 13 3 3 -3 12 -14 20 -11 8 -20 21 -20 29
0 8 -3 14 -8 14 -4 0 -18 18 -32 39 -13 22 -28 38 -32 35 -4 -3 -8 0 -8 6 0 6
-11 26 -24 43 -17 23 -22 41 -19 62 2 17 5 40 6 53 0 12 4 22 8 22 6 0 23 74
22 98 0 6 3 12 7 12 5 0 9 8 9 18 2 45 6 62 14 62 4 0 6 4 3 9 -3 5 1 27 9 50
8 23 12 41 10 41 -3 0 0 12 6 28 7 15 12 36 13 47 1 11 5 26 9 33 5 6 5 17 2
22 -3 6 -1 10 5 10 6 0 8 5 5 10 -3 6 -3 16 2 23 4 6 8 18 10 26 2 17 22 31
46 31 10 0 16 4 12 9 -3 6 3 8 14 6 10 -2 31 3 45 10 15 8 42 17 61 21 19 3
35 10 35 16 0 5 4 7 9 4 5 -4 30 3 55 14 25 10 46 17 46 13 0 -3 7 0 15 7 8 7
15 9 15 5 0 -4 7 -2 15 5 8 7 15 9 15 5 0 -4 7 -2 15 5 8 7 21 10 29 7 8 -3
16 -1 18 5 4 10 14 13 66 20 6 1 12 6 12 12 0 6 7 2 15 -8 8 -10 12 -23 8 -29z
m-2227 22 c3 -5 16 -9 29 -9 13 0 27 -4 30 -10 3 -5 17 -10 30 -10 13 0 26 -4
29 -8 3 -5 30 -15 61 -22 30 -7 55 -18 55 -23 0 -6 3 -7 7 -4 3 4 13 1 21 -6
13 -10 14 -9 7 3 -6 12 -5 13 6 3 7 -7 21 -13 32 -13 10 0 15 -4 12 -10 -3 -6
1 -7 10 -4 9 4 25 -2 35 -11 14 -13 20 -14 20 -5 0 10 5 9 18 -3 10 -10 22
-14 25 -11 4 4 13 2 20 -4 8 -7 16 -9 20 -6 3 3 10 -3 16 -14 6 -11 7 -22 3
-26 -3 -4 -1 -10 6 -15 6 -4 13 -24 14 -44 2 -20 7 -37 12 -37 4 0 6 -11 4
-25 -3 -13 -2 -22 2 -20 4 3 11 -14 15 -38 4 -23 9 -46 11 -52 5 -19 15 -60
18 -75 1 -8 5 -22 8 -30 6 -15 19 -63 24 -90 3 -20 9 -46 23 -97 14 -50 12
-63 -13 -85 -10 -10 -15 -18 -11 -18 4 0 -2 -9 -15 -20 -13 -11 -19 -20 -14
-20 5 0 1 -5 -8 -11 -10 -5 -18 -15 -18 -21 0 -6 -11 -21 -25 -34 -14 -13 -25
-26 -25 -29 1 -21 -1 -26 -9 -21 -4 3 -13 -6 -19 -19 -7 -14 -16 -25 -22 -25
-6 0 -8 -4 -5 -10 3 -5 1 -10 -4 -10 -6 0 -11 -4 -11 -10 0 -39 -79 -67 -108
-38 -9 9 -12 9 -12 -1 0 -9 -4 -10 -12 -4 -7 6 -21 9 -30 8 -10 -2 -18 2 -18
8 0 7 -5 5 -10 -3 -5 -8 -10 -10 -10 -4 0 11 -6 12 -65 15 -19 0 -35 6 -35 13
0 6 -5 4 -10 -4 -5 -8 -10 -10 -10 -4 0 5 -10 11 -22 11 -62 4 -98 9 -98 14 0
3 -21 7 -47 8 -27 1 -50 6 -51 11 -2 6 -8 8 -13 4 -5 -3 -9 0 -9 7 0 7 -6 20
-14 28 -8 9 -16 23 -18 31 -2 8 -12 23 -22 33 -10 9 -16 17 -13 17 3 0 -8 30
-24 68 -50 109 -63 143 -60 156 1 4 -4 14 -10 22 -7 8 -9 17 -6 20 3 3 -1 17
-8 31 -7 14 -11 32 -8 39 3 8 1 14 -4 14 -8 0 -12 19 -14 73 0 11 -5 15 -12
10 -7 -4 -6 1 2 11 10 11 11 20 5 24 -9 6 -12 67 -4 82 1 3 2 9 1 13 -1 5 2 6
7 3 5 -3 16 4 25 15 9 10 13 19 9 19 -4 1 4 7 18 15 14 7 24 17 23 22 -2 7 54
77 104 130 12 13 19 23 15 23 -4 0 6 11 22 25 16 14 26 25 21 25 -4 0 7 13 24
29 16 15 28 31 25 33 -3 3 7 6 21 6 14 0 28 -4 31 -9z m807 -844 c4 -6 10 -5
16 3 4 8 12 14 16 14 4 0 12 -6 16 -14 5 -8 9 -9 9 -2 0 10 32 12 65 4 6 -1
12 -1 15 0 18 7 60 4 60 -5 0 -5 4 -4 9 3 4 8 12 14 16 14 4 0 12 -6 16 -14 8
-11 10 -11 18 0 4 8 12 14 16 14 4 0 12 -6 16 -14 5 -7 9 -8 9 -2 0 6 7 11 15
11 8 0 15 -5 15 -11 0 -6 4 -5 9 2 4 8 12 14 16 14 4 0 12 -6 16 -14 5 -8 9
-9 9 -2 0 10 32 12 65 4 6 -1 12 -1 15 0 18 7 60 4 60 -5 0 -6 3 -7 8 0 10 14
32 17 32 4 0 -8 4 -8 14 0 10 9 16 9 21 1 4 -7 11 -8 18 -1 8 6 21 1 40 -15
15 -13 22 -24 15 -25 -7 0 -3 -5 10 -11 12 -6 22 -17 22 -25 0 -7 5 -13 10
-13 6 0 10 -6 10 -13 0 -7 9 -19 20 -27 11 -8 20 -20 20 -26 0 -7 7 -15 16
-18 8 -3 12 -10 9 -16 -3 -6 1 -13 9 -16 9 -3 13 -10 10 -15 -3 -5 2 -9 11 -9
9 0 13 -4 10 -10 -3 -5 -1 -10 4 -10 6 0 11 -7 11 -15 0 -8 4 -15 10 -15 5 0
16 -12 23 -26 11 -20 11 -32 3 -50 -6 -13 -15 -24 -19 -24 -5 0 -5 -4 -2 -10
3 -5 1 -10 -5 -10 -6 0 -8 -5 -5 -10 3 -5 2 -10 -3 -10 -5 0 -15 -13 -22 -30
-7 -16 -17 -30 -22 -30 -5 0 -6 -5 -3 -11 4 -5 -1 -18 -12 -27 -10 -9 -19 -23
-21 -31 -2 -8 -11 -26 -21 -40 -9 -14 -28 -47 -42 -73 -13 -27 -27 -48 -31
-48 -5 0 -8 -9 -8 -20 0 -10 -6 -23 -14 -27 -14 -8 -16 -12 -16 -34 0 -5 -4
-7 -10 -4 -5 3 -10 0 -11 -7 0 -10 -2 -11 -6 0 -3 9 -9 10 -17 3 -7 -6 -27
-11 -44 -13 -18 -1 -32 -7 -32 -13 0 -5 -5 -3 -10 5 -9 13 -10 13 -10 0 0 -13
-1 -13 -10 0 -6 9 -10 10 -10 3 0 -7 -10 -10 -25 -7 -14 2 -25 1 -25 -3 0 -10
-231 -10 -247 0 -7 5 -13 4 -13 -1 0 -11 -48 -3 -56 10 -3 5 -12 4 -20 -3 -8
-6 -14 -8 -14 -3 0 5 -18 10 -40 11 -38 1 -70 20 -70 42 0 5 -7 14 -16 19 -9
5 -15 11 -14 13 5 10 -24 58 -32 53 -5 -3 -8 -2 -7 3 3 19 -14 52 -24 46 -6
-4 -8 0 -4 10 3 9 0 18 -9 21 -8 3 -14 12 -14 21 0 8 -4 15 -10 15 -5 0 -10 7
-10 15 0 8 -4 15 -10 15 -5 0 -10 9 -10 21 0 11 -4 18 -9 15 -5 -3 -14 8 -21
24 -7 17 -17 30 -23 30 -6 0 -7 3 -4 6 4 4 -5 20 -18 36 -14 16 -25 36 -25 44
0 8 -4 14 -10 14 -17 0 -11 35 10 58 12 12 19 22 16 22 -3 0 5 11 17 24 33 36
47 54 47 62 0 12 38 53 44 47 3 -3 6 -1 6 6 0 12 40 70 68 99 6 7 12 18 12 24
0 6 9 8 20 5 11 -3 20 -2 20 3 0 11 44 7 53 -5z"/>
</g>
</svg>
